Coordinates
version=1
nRows=14
nColumns=40
inDegrees=yes

Units are S.I. units (second, meters, Newtons, ...)
If the header above contains a line with 'inDegrees', this indicates whether rotational values are in degrees (yes) or radians (no).

endheader
time	pelvis_tilt	pelvis_list	pelvis_rotation	pelvis_tx	pelvis_ty	pelvis_tz	hip_flexion_r	hip_adduction_r	hip_rotation_r	knee_angle_r	knee_angle_r_beta	ankle_angle_r	subtalar_angle_r	mtp_angle_r	hip_flexion_l	hip_adduction_l	hip_rotation_l	knee_angle_l	knee_angle_l_beta	ankle_angle_l	subtalar_angle_l	mtp_angle_l	lumbar_extension	lumbar_bending	lumbar_rotation	arm_flex_r	arm_add_r	arm_rot_r	elbow_flex_r	pro_sup_r	wrist_flex_r	wrist_dev_r	arm_flex_l	arm_add_l	arm_rot_l	elbow_flex_l	pro_sup_l	wrist_flex_l	wrist_dev_l
      4.46000000	    -15.76204046	      7.11382608	     -9.86290271	     -0.42564993	      0.56388532	     -0.87867013	     89.34066353	    -15.96002711	     17.70051721	    117.62595668	      2.05296023	     43.18579084	      0.00000000	      0.00000000	     83.46994542	    -29.97387478	      6.80100237	    114.15410047	      1.99236491	     40.72134756	      0.00000000	      0.00000000	    -31.62514214	     -3.85334979	      6.58430953	    -60.32637601	    -37.55522241	     -3.68323624	    123.46270757	     88.15066372	      0.00000000	      0.00000000	     16.01286043	    -66.91997772	     85.28211244	    112.56749483	     88.26516076	      0.00000000	      0.00000000
      4.46500000	    -16.17004718	      7.25788733	     -9.69904035	     -0.42673141	      0.55639845	     -0.87851911	     90.57573703	    -15.88674847	     18.24560900	    118.56101790	      2.06928013	     43.44217105	      0.00000000	      0.00000000	     84.84902109	    -29.88458592	      7.46087604	    115.06969480	      2.00834504	     40.60082864	      0.00000000	      0.00000000	    -31.34985425	     -4.05325636	      6.66781014	    -60.16309119	    -38.12571683	     -3.17098577	    123.40345080	     88.17568760	      0.00000000	      0.00000000	     16.01719183	    -66.98203335	     85.58510752	    112.70978113	     88.28066460	      0.00000000	      0.00000000
      4.47000000	    -15.94581284	      7.26597039	     -9.57356539	     -0.42731901	      0.55050238	     -0.87845048	     91.00759270	    -15.98245782	     18.65702833	    119.47968096	      2.08531382	     43.58825386	      0.00000000	      0.00000000	     85.39235812	    -29.91065968	      7.91578003	    115.93532262	      2.02345310	     40.75714068	      0.00000000	      0.00000000	    -31.86372379	     -4.17383021	      6.84803677	    -59.95909837	    -38.38236885	     -3.14882697	    123.34908946	     88.17434654	      0.00000000	      0.00000000	     16.11550673	    -66.80539763	     85.55230271	    112.61726638	     88.27292088	      0.00000000	      0.00000000
      4.47500000	    -16.00824330	      6.81142605	     -9.17428417	     -0.42809496	      0.54413864	     -0.87867295	     91.48432854	    -16.19292952	     18.57327156	    120.37902262	      2.10101030	     43.73552319	      0.00000000	      0.00000000	     86.69603780	    -29.63872617	      9.27733564	    116.85730516	      2.03954473	     40.55300361	      0.00000000	      0.00000000	    -32.06730789	     -3.67803992	      6.88304251	    -59.74246843	    -39.25487190	     -2.67982489	    123.44001202	     88.17988979	      0.00000000	      0.00000000	     16.14686378	    -66.75635139	     85.90123654	    112.66807900	     88.27160171	      0.00000000	      0.00000000
      4.48000000	    -15.80367707	      6.85628972	     -9.09196308	     -0.42905860	      0.53844837	     -0.87852040	     91.97418935	    -16.18947419	     19.03126973	    121.24160545	      2.11606521	     43.87653682	      0.00000000	      0.00000000	     87.23713297	    -29.61187110	      9.74532950	    117.60537393	      2.05260099	     40.70015607	      0.00000000	      0.00000000	    -32.58588857	     -3.85784126	      7.07918435	    -59.52763888	    -39.51585671	     -2.68096115	    123.44463469	     88.17542773	      0.00000000	      0.00000000	     16.24619455	    -66.61368884	     85.86500339	    112.58656683	     88.26480174	      0.00000000	      0.00000000
      4.48500000	    -15.88647989	      6.65352629	     -8.81003077	     -0.43000808	      0.53231667	     -0.87857458	     92.65396182	    -16.25355782	     19.25343305	    122.09637848	      2.13098381	     43.87987977	      0.00000000	      0.00000000	     88.35793388	    -29.37836316	     10.71111678	    118.41291801	      2.06669530	     40.54870874	      0.00000000	      0.00000000	    -32.73426311	     -3.65911937	      7.07757654	    -59.41013168	    -40.31137004	     -2.30842694	    123.64326746	     88.18772340	      0.00000000	      0.00000000	     16.23861022	    -66.67381562	     86.19271129	    112.66427187	     88.27080389	      0.00000000	      0.00000000
      4.49000000	    -15.84554489	      6.97771690	     -8.04853150	     -0.42980249	      0.52647231	     -0.88088498	     93.51158282	    -17.25902003	     20.12565765	    122.97315845	      2.14628651	     43.95362807	      0.00000000	      0.00000000	     88.91088936	    -28.37888603	     10.83120875	    119.28880565	      2.08198242	     40.52882552	      0.00000000	      0.00000000	    -32.92178803	     -3.57003177	      6.55195798	    -59.43144164	    -40.79324446	     -2.26432241	    123.59684290	     88.17809303	      0.00000000	      0.00000000	     16.20371398	    -66.34443336	     86.39177878	    112.40410864	     88.26918295	      0.00000000	      0.00000000
      4.49500000	    -15.62227094	      6.93655017	     -7.94021827	     -0.43070315	      0.52178485	     -0.88047402	     93.88972904	    -17.26584007	     20.47165383	    123.70230680	      2.15901255	     44.02163794	      0.00000000	      0.00000000	     89.35598694	    -28.35504214	     11.35627953	    119.87435554	      2.09220219	     40.62803796	      0.00000000	      0.00000000	    -33.50064517	     -3.66087365	      6.63645207	    -59.12396309	    -41.09660912	     -2.20231239	    123.61902641	     88.17977962	      0.00000000	      0.00000000	     16.30617866	    -66.31887845	     86.42286483	    112.30765967	     88.26868332	      0.00000000	      0.00000000
      4.50000000	    -15.90703201	      7.30944466	     -7.40682460	     -0.43143545	      0.51556300	     -0.88174536	     95.18916612	    -17.80475144	     21.36273457	    124.47452872	      2.17249036	     43.89974239	      0.00000000	      0.00000000	     90.28827483	    -27.65109977	     11.56143222	    120.58639016	      2.10462954	     40.51050637	      0.00000000	      0.00000000	    -33.28577205	     -3.80514302	      6.10813895	    -58.87782184	    -41.92042417	     -1.71355068	    123.71151114	     88.19327419	      0.00000000	      0.00000000	     16.27116093	    -66.33424682	     86.78112003	    112.30188875	     88.28028579	      0.00000000	      0.00000000
      4.50500000	    -15.75647962	      7.38919659	     -7.07105293	     -0.43204692	      0.51072355	     -0.88229460	     95.74924203	    -18.13466592	     21.92338551	    125.21286899	      2.18537683	     43.83787993	      0.00000000	      0.00000000	     90.76774798	    -27.30400365	     11.93128893	    121.24579458	      2.11613832	     40.50205998	      0.00000000	      0.00000000	    -33.69268167	     -3.82701159	      5.90377259	    -58.67183306	    -42.43160313	     -1.47614319	    123.73821603	     88.19680513	      0.00000000	      0.00000000	     16.27764880	    -66.30940715	     86.92321420	    112.22979977	     88.28356386	      0.00000000	      0.00000000
      4.51000000	    -15.67593980	      8.02918770	     -6.04060473	     -0.43132198	      0.50585110	     -0.88582946	     96.78050443	    -19.66001431	     23.27331285	    125.90618562	      2.19747749	     43.76678211	      0.00000000	      0.00000000	     90.92526034	    -25.88527005	     11.45453399	    121.96351964	      2.12866499	     40.58851529	      0.00000000	      0.00000000	    -33.83540599	     -3.79007301	      4.82137385	    -58.62156360	    -43.10221452	     -1.32164447	    123.74123262	     88.19237977	      0.00000000	      0.00000000	     16.18817248	    -65.91355814	     87.09956821	    111.90418533	     88.28645088	      0.00000000	      0.00000000
      4.51500000	    -14.75252584	      7.35297818	     -7.96054550	     -0.43087353	      0.50298353	     -0.87953175	     95.69736694	    -17.26787151	     22.48745870	    126.62721980	      2.21006191	     43.72310734	      0.00000000	      0.00000000	     90.61001894	    -28.80747673	     12.59585867	    122.51004019	      2.13820357	     40.63629534	      0.00000000	      0.00000000	    -34.96024139	     -4.71270815	      6.64385922	    -57.50843807	    -43.48366712	     -0.31694177	    123.33523488	     88.21952419	      0.00000000	      0.00000000	     16.10608900	    -66.16779541	     87.02571580	    111.87610929	     88.27889620	      0.00000000	      0.00000000
      4.52000000	    -15.39862713	      8.06382948	     -6.10768615	     -0.43235191	      0.49728149	     -0.88473138	     97.61163045	    -19.45875655	     23.96672425	    127.13274293	      2.21888495	     43.76351552	      0.00000000	      0.00000000	     91.77054285	    -26.25622021	     12.22441963	    123.03655440	      2.14739297	     40.57298875	      0.00000000	      0.00000000	    -34.49603090	     -4.22994586	      4.95079352	    -57.68921317	    -44.25927944	     -0.39137717	    123.63815543	     88.17940974	      0.00000000	      0.00000000	     16.12506172	    -66.01081895	     87.17823520	    111.91258300	     88.29315615	      0.00000000	      0.00000000
      4.52500000	    -15.51153929	      7.91343735	     -6.05802566	     -0.43312283	      0.49259840	     -0.88437516	     98.21743786	    -19.37909662	     24.12201757	    127.74103697	      2.22950169	     43.58375918	      0.00000000	      0.00000000	     92.63322786	    -26.38145212	     12.86903910	    123.56649001	      2.15664210	     40.50089420	      0.00000000	      0.00000000	    -34.49160147	     -4.23909591	      5.05899330	    -57.25659669	    -44.89589968	      0.24183424	    123.51941523	     88.19886967	      0.00000000	      0.00000000	     16.02392682	    -66.05017032	     87.19381568	    111.93020049	     88.29290485	      0.00000000	      0.00000000
